# xmcd
#
# Track frame offsets:
#       150
#       14015
#       27892
#       40947
#       55900
#       70460
#       85207
#       98812
#       113960
#       128672
#       140002
#       151205
#       163392
#       176157
#
# Disc length: 2513 seconds
#
# Revision: 0
# Processed by: cddbd v1.5.1PL0 Copyright (c) Steve Scherf et al.
# Submitted via: WaveLab 4.01
#
DISCID=c509cf0e
DTITLE=Peter Alexander - Seine großen Filmerfolge
DYEAR=1900
DGENRE=
TTITLE0=Peter Alexander - Das machen nur die beine von dolores
TTITLE1=Peter Alexander - ich finde dich
TTITLE2=Peter Alexander - fahr' auf dem ziegeunerwagen
TTITLE3=Peter Alexander - was versteht den ein cowboy von liebe
TTITLE4=Peter Alexander - Bolero
TTITLE5=Peter Alexander - Der bunte traum Teil 1
TTITLE6=Peter Alexander - ach herr Kuhn
TTITLE7=Peter Alexander - der bunte traum Teil 2
TTITLE8=Peter Alexander - ponny serenade
TTITLE9=Peter Alexander - die süßesten früchte fressen nur die großen tiere
TTITLE10=Peter Alexander - die Panne mit Susanne
TTITLE11=Peter Alexander - margarita
TTITLE12=Peter Alexander - ich weiss,was du dir denkst
TTITLE13=Peter Alexander - ich sing' heut' vergnügt vor mich hin
EXTD=
EXTT0=
EXTT1=
EXTT2=
EXTT3=
EXTT4=
EXTT5=
EXTT6=
EXTT7=
EXTT8=
EXTT9=
EXTT10=
EXTT11=
EXTT12=
EXTT13=
PLAYORDER=
